<?xml version="1.0" encoding="utf-8"?>
<!-- Generator: Adobe Illustrator 23.0.1, SVG Export Plug-In . SVG Version: 6.00 Build 0)  -->
<svg version="1.1" id="Layer_1" xmlns="http://www.w3.org/2000/svg" xmlns:xlink="http://www.w3.org/1999/xlink" x="0px" y="0px"
	 viewBox="0 0 36 27.5" style="enable-background:new 0 0 36 27.5;" xml:space="preserve">
<style type="text/css">
	.st0{fill:none;stroke:#FFFFFF;stroke-width:2;stroke-miterlimit:10;}
	.st1{fill:#FFFFFF;}
	.st2{fill:none;stroke:#252525;stroke-width:2;stroke-miterlimit:10;}
	.st3{fill:none;stroke:#252525;stroke-width:2;stroke-linecap:round;stroke-linejoin:round;stroke-miterlimit:10;}
	.st4{fill:#252525;}
</style>
<path class="st0" d="M-82.29-23.25h-17.42c-3.47,0-6.29-2.82-6.29-6.29v-17.42c0-3.47,2.82-6.29,6.29-6.29h17.42
	c3.47,0,6.29,2.82,6.29,6.29v17.42C-76-26.07-78.82-23.25-82.29-23.25z"/>
<circle class="st0" cx="-91" cy="-38.25" r="7"/>
<circle class="st1" cx="-82" cy="-47.25" r="2"/>
<path class="st0" d="M-30.29-53.25h-17.42c-3.47,0-6.29,2.82-6.29,6.29v17.42c0,3.47,2.82,6.29,6.29,6.29H-41v-9.5h-4v-6h4v-3.5
	v-0.24c0-3.18,2.58-5.76,5.76-5.76H-35h6v6h-4.68c-0.73,0-1.32,0.59-1.32,1.32v2.18h6l-2,6h-4v9.5h4.71c3.47,0,6.29-2.82,6.29-6.29
	v-17.42C-24-50.43-26.82-53.25-30.29-53.25z"/>
<path class="st0" d="M31.71-23.25H4.29C0.82-23.25-2-26.07-2-29.54v-17.42c0-3.47,2.82-6.29,6.29-6.29h27.42
	c3.47,0,6.29,2.82,6.29,6.29v17.42C38-26.07,35.18-23.25,31.71-23.25z"/>
<polygon class="st0" points="14,-44.25 14,-32.25 25,-38.25 "/>
<path class="st2" d="M31.91,26.5H4.09C2.38,26.5,1,25.12,1,23.41V4.09C1,2.38,2.38,1,4.09,1h27.82C33.62,1,35,2.38,35,4.09v19.32
	C35,25.12,33.62,26.5,31.91,26.5z"/>
<polyline class="st3" points="30.76,4.66 18.01,15.72 5.25,4.66 "/>
<line class="st3" x1="15.07" y1="13.18" x2="5.25" y2="22.44"/>
<line class="st3" x1="21.4" y1="13.18" x2="31.22" y2="22.44"/>
<circle class="st2" cx="-38.5" cy="11.25" r="7.5"/>
<path class="st2" d="M-26,11.25c0,10.5-12.5,17.5-12.5,17.5s-12.5-7-12.5-17.5c0-6.9,5.6-12.5,12.5-12.5S-26,4.35-26,11.25z"/>
<g>
	<g>
		<path class="st4" d="M-81.71,17.57c-0.66-0.68-1.45-1.05-2.28-1.05c-0.83,0-1.63,0.36-2.31,1.04l-2.13,2.13
			c-0.18-0.09-0.35-0.18-0.52-0.27c-0.24-0.12-0.47-0.24-0.67-0.36c-2-1.27-3.82-2.92-5.56-5.07c-0.84-1.07-1.41-1.97-1.82-2.88
			c0.55-0.51,1.07-1.03,1.57-1.54c0.19-0.19,0.38-0.38,0.57-0.57c1.42-1.42,1.42-3.26,0-4.67l-1.84-1.84
			c-0.21-0.21-0.43-0.43-0.63-0.64c-0.41-0.42-0.83-0.85-1.27-1.26c-0.66-0.65-1.44-0.99-2.26-0.99s-1.62,0.34-2.3,0.99
			c-0.01,0.01-0.01,0.01-0.01,0.01l-2.3,2.32c-0.86,0.86-1.36,1.92-1.47,3.14c-0.16,1.97,0.42,3.81,0.86,5.01
			c1.09,2.95,2.73,5.69,5.17,8.62c2.96,3.53,6.52,6.32,10.58,8.29c1.55,0.74,3.63,1.61,5.94,1.76c0.14,0.01,0.29,0.01,0.43,0.01
			c1.56,0,2.87-0.56,3.9-1.67c0.01-0.01,0.02-0.02,0.03-0.03c0.35-0.43,0.76-0.81,1.18-1.22c0.29-0.28,0.59-0.57,0.88-0.87
			c0.67-0.7,1.02-1.51,1.02-2.34c0-0.84-0.36-1.64-1.04-2.32L-81.71,17.57z M-79.29,24.68C-79.3,24.68-79.3,24.69-79.29,24.68
			c-0.26,0.28-0.53,0.54-0.82,0.82c-0.44,0.42-0.88,0.86-1.3,1.35c-0.68,0.73-1.49,1.07-2.54,1.07c-0.1,0-0.21,0-0.31-0.01
			c-2.01-0.13-3.87-0.91-5.27-1.58c-3.82-1.85-7.18-4.48-9.97-7.81c-2.3-2.78-3.84-5.34-4.86-8.1c-0.63-1.68-0.86-2.99-0.76-4.23
			c0.07-0.79,0.37-1.45,0.93-2.01l2.3-2.3c0.33-0.31,0.68-0.48,1.03-0.48c0.43,0,0.77,0.26,0.99,0.47c0.01,0.01,0.01,0.01,0.02,0.02
			c0.41,0.38,0.8,0.78,1.22,1.21c0.21,0.22,0.43,0.43,0.64,0.66l1.84,1.84c0.72,0.72,0.72,1.38,0,2.09c-0.2,0.2-0.38,0.39-0.58,0.58
			c-0.57,0.58-1.11,1.12-1.7,1.65c-0.01,0.01-0.03,0.02-0.03,0.03c-0.58,0.58-0.47,1.15-0.35,1.53c0.01,0.02,0.01,0.04,0.02,0.06
			c0.48,1.16,1.15,2.26,2.18,3.56l0.01,0.01c1.86,2.3,3.83,4.09,6,5.46c0.28,0.18,0.56,0.32,0.83,0.45
			c0.24,0.12,0.47,0.24,0.67,0.36c0.03,0.01,0.05,0.03,0.08,0.05c0.23,0.11,0.45,0.17,0.67,0.17c0.56,0,0.91-0.35,1.03-0.47
			l2.31-2.31c0.23-0.23,0.59-0.51,1.02-0.51c0.42,0,0.76,0.26,0.97,0.49c0.01,0.01,0.01,0.01,0.01,0.01l3.72,3.72
			C-78.6,23.26-78.6,23.97-79.29,24.68z"/>
		<path class="st4" d="M-89.71,5.36c1.77,0.3,3.38,1.13,4.66,2.42s2.11,2.89,2.42,4.66c0.07,0.45,0.46,0.76,0.9,0.76
			c0.05,0,0.1-0.01,0.16-0.01c0.5-0.08,0.83-0.55,0.75-1.05c-0.36-2.14-1.38-4.09-2.92-5.64s-3.5-2.56-5.64-2.92
			c-0.5-0.08-0.97,0.25-1.05,0.74C-90.53,4.8-90.21,5.28-89.71,5.36z"/>
		<path class="st4" d="M-75.04,11.87c-0.6-3.53-2.26-6.73-4.82-9.29s-5.76-4.21-9.29-4.82c-0.49-0.09-0.96,0.25-1.05,0.74
			c-0.08,0.5,0.25,0.97,0.75,1.05c3.15,0.53,6.02,2.03,8.3,4.3c2.28,2.28,3.77,5.15,4.3,8.3c0.07,0.45,0.46,0.76,0.9,0.76
			c0.05,0,0.1-0.01,0.16-0.01C-75.29,12.83-74.95,12.36-75.04,11.87z"/>
	</g>
</g>
</svg>
